# xmcd
#
# Track frame offsets: 
#        150
#        19052
#        36960
#        52532
#        70469
#        90155
#        109802
#        128331
#        147170
#        165888
#        182696
#        202492
#        222160
#        240803
#        261779
#        280543
#        295294
#        313842
#        322501
#        331821
#        340303
#
# Disc length: 4567 seconds
#
# Revision: 0
# Processed by: cddbd v1.5.2PL0 Copyright (c) Steve Scherf et al.
# Submitted via: ExactAudioCopy v0.99pb5
#
DISCID=1d11d515
DTITLE=Nicolae Guta - vol.26
DYEAR=1900
DGENRE=Manele
TTITLE0=Daca pleci cersesc iubirea ta
TTITLE1=Am atatea probleme
TTITLE2=Sunt tare
TTITLE3=De la 1 pana la 10
TTITLE4=Am sa mor
TTITLE5=Nimeni nu va mai fi cu tine
TTITLE6=Domnisoara, domnisoara
TTITLE7=In tara, in tara
TTITLE8=Oricat de bogat ai fi
TTITLE9=Impreuna am ras, impreuna am plans (cu Nicoleta)
TTITLE10=Daca ai bani - fa-ti reclama
TTITLE11=Atat de indragostit
TTITLE12=Strainatatea
TTITLE13=Beau sa uit de tine
TTITLE14=Astazi e ziua ta
TTITLE15=Beau cu prietenii mei (cu Dules)
TTITLE16=Tare fericit e tata (cu Nicoleta)
TTITLE17=Promo 1
TTITLE18=Promo 2
TTITLE19=Promo 3
TTITLE20=Publicitate
EXTD=
EXTT0=
EXTT1=
EXTT2=
EXTT3=
EXTT4=
EXTT5=
EXTT6=
EXTT7=
EXTT8=
EXTT9=
EXTT10=
EXTT11=
EXTT12=
EXTT13=
EXTT14=
EXTT15=
EXTT16=
EXTT17=
EXTT18=
EXTT19=
EXTT20=
PLAYORDER=
